#!OML:ASF X:\2005_08_12_Meinard\c3d\meinard.ASF
:FULLY-SPECIFIED
:DEGREES
1586
root 7.62169 16.955 -4.40953 -22.846 -75.1387 8.75864
lowerback 33.312 0.485913 -2.54557
upperback 4.75736 -1.10078 -2.32404
thorax -11.8282 -0.639124 -0.644378
lowerneck -19.3541 -1.01932 2.98941
upperneck 7.52035 -2.33714 1.46475
head 5.36501 -0.950182 -0.24564
rclavicle -7.45443e-015 -1.35174e-014
rhumerus -32.8712 -33.0528 -80.0265
rradius 13.556
rwrist 43.2816
rhand -5.55857 2.643
rfingers 7.12502
rthumb 20.2567 -26.3207
lclavicle -7.45443e-015 -1.35174e-014
lhumerus 11.8913 145.478 92.1739
lradius 20.1189
lwrist -165.132
lhand -22.7196 -15.1311
lfingers 7.12502
lthumb 3.71385 14.8162
rfemur 24.4566 -9.86869 14.8991
rtibia 27.8208
rfoot -19.6909 1.5492
rtoes -13.076
lfemur -7.72758 0.629479 -21.9422
ltibia 30.9758
lfoot -7.88944 3.67084
ltoes -16.0605
1587
root 7.73842 16.9192 -4.43404 -23.8502 -74.9193 9.98966
lowerback 33.4322 0.488705 -2.25631
upperback 4.67232 -1.02584 -2.52541
thorax -11.9851 -0.614437 -1.04486
lowerneck -19.4934 -1.11794 2.92063
upperneck 7.42796 -2.42779 1.25321
head 5.35394 -1.01398 -0.311222
rclavicle 9.93923e-017 1.94809e-014
rhumerus -33.3501 -34.3361 -79.1503
rradius 12.8071
rwrist 45.7705
rhand -5.21877 3.23592
rfingers 7.12502
rthumb 20.5832 -25.6928
lclavicle 9.93923e-017 1.94809e-014
lhumerus 11.8363 146.155 91.8396
lradius 20.3311
lwrist -165.805
lhand -22.7187 -15.0928
lfingers 7.12502
lthumb 3.71474 14.8545
rfemur 25.1976 -9.33678 14.9613
rtibia 26.195
rfoot -20.6959 1.60807
rtoes -12.3375
lfemur -8.66991 0.954594 -22.3416
ltibia 31.402
lfoot -7.67948 3.31454
ltoes -15.7125
1588
root 7.85216 16.8875 -4.45841 -24.8627 -74.7079 11.2086
lowerback 33.5623 0.494147 -1.97971
upperback 4.60474 -0.952485 -2.72295
thorax -12.1251 -0.591794 -1.43472
lowerneck -19.6202 -1.20868 2.87092
upperneck 7.297 -2.50753 1.00652
head 5.32781 -1.07555 -0.389649
rclavicle -1.13307e-014 1.19271e-014
rhumerus -33.6106 -34.8885 -78.6746
rradius 12.2067
rwrist 47.6353
rhand -4.95581 3.78005
rfingers 7.12502
rthumb 20.8359 -25.1211
lclavicle -1.13307e-014 1.19271e-014
lhumerus 11.8011 146.745 91.5379
lradius 20.5346
lwrist -166.3
lhand -22.7184 -15.0178
lfingers 7.12502
lthumb 3.71503 14.9296
rfemur 25.7758 -8.74677 14.999
rtibia 24.6878
rfoot -21.6473 1.76578
rtoes -11.9161
lfemur -9.51381 1.31556 -22.7404
ltibia 31.7405
lfoot -7.53593 2.89514
ltoes -15.5107
1589
root 7.96412 16.8608 -4.48142 -25.7313 -74.487 12.2898
lowerback 33.6747 0.48528 -1.67597
upperback 4.54873 -0.886659 -2.92231
thorax -12.2448 -0.574833 -1.83898
lowerneck -19.7089 -1.27869 2.8898
upperneck 7.10522 -2.57796 0.777004
head 5.27585 -1.13075 -0.471896
rclavicle -1.94809e-014 0
rhumerus -33.6971 -34.9582 -78.5149
rradius 11.7075
rwrist 49.1142
rhand -4.71403 4.28452
rfingers 7.12502
rthumb 21.0682 -24.591
lclavicle -1.94809e-014 0
lhumerus 11.8646 147.069 91.3813
lradius 20.6842
lwrist -166.401
lhand -22.7521 -14.9675
lfingers 7.12502
lthumb 3.68252 14.9805
rfemur 26.173 -8.14452 15.0635
rtibia 23.3307
rfoot -22.5781 1.87586
rtoes -10.8318
lfemur -10.3284 1.67674 -23.124
ltibia 32.0143
lfoot -7.36841 2.47424
ltoes -15.175
1590
root 8.07819 16.8351 -4.5036 -26.4326 -74.3279 13.1405
lowerback 33.8803 0.480161 -1.32489
upperback 4.5136 -0.802835 -3.11326
thorax -12.3772 -0.553525 -2.26764
lowerneck -19.8299 -1.32826 2.9534
upperneck 6.89181 -2.64205 0.604198
head 5.22234 -1.17779 -0.542672
rclavicle 1.26228e-014 6.55989e-014
rhumerus -33.463 -34.1249 -78.9965
rradius 11.3792
rwrist 49.6133
rhand -4.5791 4.6727
rfingers 7.12502
rthumb 21.1978 -24.1883
lclavicle 1.26228e-014 6.55989e-014
lhumerus 11.9824 147.097 91.3518
lradius 20.8188
lwrist -166.102
lhand -22.7918 -14.8784
lfingers 7.12502
lthumb 3.64416 15.0702
rfemur 26.4447 -7.57456 15.1494
rtibia 22.1489
rfoot -23.4789 1.96657
rtoes -9.51055
lfemur -11.0633 2.05939 -23.4375
ltibia 32.2597
lfoot -7.22773 2.07298
ltoes -14.9768
1591
root 8.19536 16.8088 -4.52494 -26.9515 -74.1711 13.78
lowerback 34.1703 0.453705 -0.92036
upperback 4.47923 -0.726866 -3.29014
thorax -12.5416 -0.539017 -2.7081
lowerneck -19.9278 -1.38174 2.9703
upperneck 6.61619 -2.70923 0.515252
head 5.14725 -1.2228 -0.57905
rclavicle 1.51076e-014 -1.94809e-014
rhumerus -33.0061 -32.5429 -79.9408
rradius 11.2226
rwrist 49.3732
rhand -4.48803 4.90577
rfingers 7.12502
rthumb 21.2853 -23.9454
lclavicle 1.51076e-014 -1.94809e-014
lhumerus 12.1143 147.006 91.3567
lradius 20.9329
lwrist -165.651
lhand -22.8286 -14.774
lfingers 7.12502
lthumb 3.60864 15.1752
rfemur 26.582 -7.22223 15.1813
rtibia 21.1254
rfoot -24.3256 2.03017
rtoes -8.70514
lfemur -11.7962 2.40444 -23.7048
ltibia 32.5303
lfoot -7.09636 1.71243
ltoes -14.6748
1592
root 8.31502 16.7822 -4.5476 -27.1875 -74.0705 14.0837
lowerback 34.5023 0.394463 -0.542276
upperback 4.47888 -0.691073 -3.38856
thorax -12.6809 -0.541966 -3.03365
lowerneck -20.0106 -1.36249 2.95213
upperneck 6.2967 -2.67679 0.477643
head 5.0585 -1.21727 -0.583373
rclavicle -3.28989e-014 3.97569e-015
rhumerus -32.2902 -30.2534 -81.2548
rradius 11.1484
rwrist 48.6047
rhand -4.45761 4.9865
rfingers 7.12502
rthumb 21.3145 -23.8614
lclavicle -3.28989e-014 3.97569e-015
lhumerus 12.2448 147.062 91.3577
lradius 20.9792
lwrist -165.098
lhand -22.9489 -14.6873
lfingers 7.12502
lthumb 3.49247 15.2639
rfemur 26.6135 -7.0422 15.2333
rtibia 20.3004
rfoot -25.0938 2.10283
rtoes -8.20271
lfemur -12.5168 2.79071 -23.8594
ltibia 32.8548
lfoot -7.0208 1.36858
ltoes -14.4565
1593
root 8.43675 16.7557 -4.57113 -26.9946 -74.0409 13.8844
lowerback 34.8443 0.326662 -0.0542771
upperback 4.55675 -0.612802 -3.40796
thorax -12.7291 -0.53038 -3.34946
lowerneck -20.1111 -1.36833 2.81245
upperneck 5.85786 -2.65445 0.497192
head 4.93694 -1.21816 -0.550746
rclavicle 5.33737e-014 -2.50469e-014
rhumerus -31.4321 -27.6969 -82.6573
rradius 11.1691
rwrist 47.6438
rhand -4.45847 4.92514
rfingers 7.12502
rthumb 21.3136 -23.9228
lclavicle 5.33737e-014 -2.50469e-014
lhumerus 12.2886 147.006 91.4332
lradius 20.9979
lwrist -164.426
lhand -23.1194 -14.5847
lfingers 7.12502
lthumb 3.32776 15.3691
rfemur 26.5269 -7.0442 15.3456
rtibia 19.7473
rfoot -25.8003 2.2435
rtoes -8.02045
lfemur -13.2012 3.2149 -23.8413
ltibia 33.208
lfoot -7.00206 1.07349
ltoes -14.4494
1594
root 8.55921 16.7335 -4.59534 -26.3779 -74.0968 13.1633
lowerback 35.2542 0.232157 0.5641
upperback 4.67469 -0.512744 -3.38318
thorax -12.753 -0.514472 -3.69625
lowerneck -20.1801 -1.37925 2.60007
upperneck 5.36314 -2.63164 0.623966
head 4.79562 -1.21384 -0.472194
rclavicle 3.52843e-014 -2.26615e-014
rhumerus -30.5718 -25.061 -84.0237
rradius 11.2313
rwrist 46.685
rhand -4.55561 4.81724
rfingers 7.12502
rthumb 21.2203 -24.0412
lclavicle 3.52843e-014 -2.26615e-014
lhumerus 12.304 146.921 91.5116
lradius 20.9871
lwrist -163.662
lhand -23.2786 -14.431
lfingers 7.12502
lthumb 3.17407 15.5252
rfemur 26.3066 -7.15311 15.5723
rtibia 19.5033
rfoot -26.4206 2.39523
rtoes -8.1443
lfemur -13.7885 3.63932 -23.636
ltibia 33.5565
lfoot -7.03029 0.822605
ltoes -14.4228
1595
root 8.68121 16.7155 -4.61925 -25.7019 -74.1718 12.3764
lowerback 35.6958 0.124313 1.17424
upperback 4.77656 -0.426059 -3.34463
thorax -12.8032 -0.5041 -4.01849
lowerneck -20.1156 -1.40035 2.30598
upperneck 4.79272 -2.60212 0.804883
head 4.61224 -1.20557 -0.361662
rclavicle 1.05356e-014 9.14409e-015
rhumerus -29.8772 -22.9559 -85.0101
rradius 11.2671
rwrist 46.3982
rhand -4.72309 4.66877
rfingers 7.12502
rthumb 21.0595 -24.2077
lclavicle 1.05356e-014 9.14409e-015
lhumerus 12.3859 146.915 91.6103
lradius 20.9017
lwrist -162.936
lhand -23.4595 -14.2306
lfingers 7.12502
lthumb 2.99939 15.728
rfemur 25.9196 -7.3505 15.7616
rtibia 19.5569
rfoot -26.9688 2.59048
rtoes -8.21504
lfemur -14.3249 4.08569 -23.404
ltibia 33.8551
lfoot -7.10356 0.619994
ltoes -14.545
1596
root 8.80078 16.701 -4.64268 -25.1773 -74.2172 11.7964
lowerback 36.1195 0.0279989 1.70894
upperback 4.83999 -0.350703 -3.33264
thorax -12.8876 -0.496121 -4.32504
lowerneck -19.9989 -1.41736 2.04431
upperneck 4.23485 -2.5766 1.01481
head 4.42542 -1.19608 -0.247593
rclavicle -2.20651e-014 -7.95139e-016
rhumerus -29.3703 -21.2889 -85.7239
rradius 11.3184
rwrist 46.6195
rhand -5.00743 4.57323
rfingers 7.12502
rthumb 20.7863 -24.3334
lclavicle -2.20651e-014 -7.95139e-016
lhumerus 12.5583 146.909 91.7384
lradius 20.7858
lwrist -162.2
lhand -23.609 -14.1173
lfingers 7.12502
lthumb 2.85496 15.8433
rfemur 25.3272 -7.64952 15.8346
rtibia 19.8942
rfoot -27.5198 2.81635
rtoes -8.52785
lfemur -14.8348 4.46262 -23.252
ltibia 34.0695
lfoot -7.20132 0.527997
ltoes -14.6639
